<?xml version="1.0" encoding="utf-8"?>
<!-- Generator: Adobe Illustrator 23.0.3, SVG Export Plug-In . SVG Version: 6.00 Build 0)  -->
<svg version="1.1" id="Layer_1" xmlns="http://www.w3.org/2000/svg" xmlns:xlink="http://www.w3.org/1999/xlink" x="0px" y="0px"
	 viewBox="0 0 100 100" style="enable-background:new 0 0 100 100;" xml:space="preserve">
<style type="text/css">
	.st0{fill:#723804;}
</style>
<g>
	<path class="st0" d="M49.7,4.1c-25.4,0-46,20.6-46,46s20.6,46,46,46s46-20.6,46-46S75.1,4.1,49.7,4.1z M49.7,94.1
		c-24.3,0-44-19.7-44-44s19.7-44,44-44s44,19.7,44,44S74,94.1,49.7,94.1z"/>
</g>
<path class="st0" d="M80.3,31.2c0-0.1,0-0.2,0-0.2c0-0.1-0.1-0.1-0.1-0.2c0,0,0-0.1-0.1-0.1l0,0c-0.1-0.1-0.2-0.1-0.3-0.2
	c0,0,0,0-0.1,0l0,0c-0.1,0-0.2-0.1-0.3-0.1l0,0H19.9l0,0c-0.1,0-0.3,0-0.4,0.1l0,0c0,0,0,0-0.1,0s-0.2,0.1-0.3,0.2l0,0
	c0,0,0,0.1-0.1,0.1c-0.1,0.1-0.1,0.1-0.1,0.2s0,0.2,0,0.2v0.1v37.4c0,0.6,0.4,1,1,1h59.3c0.6,0,1-0.4,1-1V31.4
	C80.3,31.3,80.3,31.3,80.3,31.2z M76.8,32.4L49.6,58.7L22.4,32.4H76.8z M20.9,67.8v-34l28,27.1c0.2,0.2,0.4,0.3,0.7,0.3
	s0.5-0.1,0.7-0.3l28-27.1v34H20.9z"/>
</svg>
